<?xml version="1.0" standalone="no"?>
<!DOCTYPE svg PUBLIC "-//W3C//DTD SVG 20010904//EN"
 "http://www.w3.org/TR/2001/REC-SVG-20010904/DTD/svg10.dtd">
<svg version="1.0" xmlns="http://www.w3.org/2000/svg"
 width="1368.000000pt" height="768.000000pt" viewBox="0 0 1368.000000 768.000000"
 preserveAspectRatio="xMidYMid meet">

<g transform="translate(0.000000,768.000000) scale(0.100000,-0.100000)"
fill="#000000" stroke="none">
<path d="M1557 7353 l-948 -3 -41 -28 -42 -27 1127 -3 1126 -2 53 31 c29 17
55 33 57 35 2 2 -83 3 -190 2 -107 -2 -621 -4 -1142 -5z"/>
<path d="M252 7077 l-164 -132 565 -3 565 -2 27 -31 c14 -18 34 -48 45 -69 18
-36 18 -37 0 -68 -22 -35 -82 -82 -152 -118 -46 -23 -54 -24 -285 -24 l-238 0
-102 -37 c-57 -21 -103 -40 -103 -43 0 -3 24 -48 53 -100 l53 -95 266 -3 266
-2 35 -40 c31 -34 67 -117 67 -156 0 -18 -58 -64 -115 -90 l-50 -24 -487 0
-488 0 0 -94 0 -93 42 -48 43 -48 465 6 c503 7 534 10 633 64 107 59 186 183
213 336 22 123 3 207 -60 266 -14 14 -26 27 -26 30 0 4 16 15 36 26 43 23 128
114 153 164 28 54 58 158 66 228 18 155 -67 261 -254 317 -47 14 -117 16 -480
15 l-426 0 -163 -132z"/>
<path d="M1843 7178 c3 -13 11 -71 18 -130 l12 -108 263 0 263 0 34 -29 c18
-16 39 -40 46 -54 12 -23 10 -29 -18 -71 -21 -30 -54 -58 -99 -85 l-67 -39
-265 -6 c-145 -4 -266 -9 -268 -11 -3 -2 6 -58 18 -125 l23 -120 244 0 c265 0
265 0 322 -60 30 -32 60 -97 61 -132 0 -38 -87 -111 -170 -143 -63 -23 -77
-25 -390 -31 -304 -6 -327 -8 -360 -27 -19 -12 -37 -23 -40 -26 -3 -4 -41 -33
-85 -66 -44 -32 -87 -65 -95 -73 -8 -7 -31 -24 -50 -38 l-35 -25 525 3 525 3
79 28 c105 37 153 67 215 132 86 91 141 231 141 360 0 88 -22 137 -84 192
l-47 41 49 46 c87 81 135 201 136 341 2 129 -44 191 -182 244 -66 25 -71 25
-396 29 l-329 3 6 -23z"/>
</g>
</svg>
